<mxfile host="app.diagrams.net" agent="Mozilla/5.0 (Windows NT 10.0; Win64; x64) AppleWebKit/537.36 (KHTML, like Gecko) Chrome/131.0.0.0 Safari/537.36 OPR/116.0.0.0" version="26.0.12">
  <diagram name="Page-1" id="4bd5d27a-524c-7e24-5d5f-89a86ee4fca1">
    <mxGraphModel dx="2095" dy="1973" grid="1" gridSize="10" guides="1" tooltips="1" connect="1" arrows="1" fold="1" page="1" pageScale="1" pageWidth="1100" pageHeight="850" background="none" math="0" shadow="0">
      <root>
        <mxCell id="0" />
        <mxCell id="1" parent="0" />
        <mxCell id="XGM9a50_ZVe8VgWGHPhA-1" value="" style="whiteSpace=wrap;html=1;aspect=fixed;strokeWidth=8;fillColor=light-dark(#b5e981, #4a890c);fontColor=#ffffff;strokeColor=#2D7600;" vertex="1" parent="1">
          <mxGeometry x="620" y="-450" width="1000" height="1000" as="geometry" />
        </mxCell>
        <mxCell id="XGM9a50_ZVe8VgWGHPhA-3" value="" style="endArrow=classic;startArrow=classic;html=1;rounded=0;strokeWidth=6;" edge="1" parent="1">
          <mxGeometry width="50" height="50" relative="1" as="geometry">
            <mxPoint x="580" y="556.6666666666666" as="sourcePoint" />
            <mxPoint x="580" y="-450" as="targetPoint" />
            <Array as="points">
              <mxPoint x="580" y="-120" />
            </Array>
          </mxGeometry>
        </mxCell>
        <mxCell id="XGM9a50_ZVe8VgWGHPhA-8" value="&lt;span style=&quot;font-size: 30px;&quot;&gt;2.5 HA&lt;/span&gt;" style="text;html=1;align=center;verticalAlign=middle;resizable=0;points=[];autosize=1;strokeColor=none;fillColor=none;strokeWidth=4;perimeterSpacing=0;" vertex="1" parent="1">
          <mxGeometry x="470" y="70" width="120" height="50" as="geometry" />
        </mxCell>
        <mxCell id="XGM9a50_ZVe8VgWGHPhA-9" value="&lt;span style=&quot;font-size: 30px;&quot;&gt;2.5 HA&lt;/span&gt;" style="text;html=1;align=center;verticalAlign=middle;resizable=0;points=[];autosize=1;strokeColor=none;fillColor=none;strokeWidth=4;perimeterSpacing=0;" vertex="1" parent="1">
          <mxGeometry x="1040" y="600" width="120" height="50" as="geometry" />
        </mxCell>
        <mxCell id="XGM9a50_ZVe8VgWGHPhA-10" value="" style="endArrow=classic;startArrow=classic;html=1;rounded=0;strokeWidth=6;" edge="1" parent="1">
          <mxGeometry width="50" height="50" relative="1" as="geometry">
            <mxPoint x="620" y="590" as="sourcePoint" />
            <mxPoint x="1620" y="590" as="targetPoint" />
            <Array as="points">
              <mxPoint x="1110" y="590" />
            </Array>
          </mxGeometry>
        </mxCell>
        <mxCell id="XGM9a50_ZVe8VgWGHPhA-84" value="" style="verticalLabelPosition=bottom;verticalAlign=top;html=1;shape=mxgraph.basic.rect;fillColor2=none;strokeWidth=1;size=0;indent=0;fillColor=light-dark(#fbff24, #675000);strokeColor=#B09500;fontColor=#000000;" vertex="1" parent="1">
          <mxGeometry x="1420" y="-450" width="200" height="500" as="geometry" />
        </mxCell>
        <mxCell id="XGM9a50_ZVe8VgWGHPhA-89" value="" style="verticalLabelPosition=bottom;verticalAlign=top;html=1;shape=mxgraph.basic.rect;fillColor2=none;strokeWidth=1;size=0;indent=0;" vertex="1" parent="1">
          <mxGeometry x="620" y="50" width="1000" height="500" as="geometry" />
        </mxCell>
        <mxCell id="XGM9a50_ZVe8VgWGHPhA-91" value="&lt;font style=&quot;font-size: 31px;&quot;&gt;Vivienda&lt;/font&gt;&lt;div&gt;&lt;font style=&quot;font-size: 31px;&quot;&gt;1 HA&lt;/font&gt;&lt;/div&gt;" style="text;html=1;align=center;verticalAlign=middle;resizable=0;points=[];autosize=1;strokeColor=none;fillColor=none;" vertex="1" parent="1">
          <mxGeometry x="1450" y="-330" width="140" height="90" as="geometry" />
        </mxCell>
        <mxCell id="XGM9a50_ZVe8VgWGHPhA-93" value="" style="verticalLabelPosition=bottom;verticalAlign=top;html=1;shape=mxgraph.basic.patternFillRect;fillStyle=diag;step=5;fillStrokeWidth=0.2;fillStrokeColor=#dddddd;strokeWidth=3;perimeterSpacing=0;shadow=0;fillColor=light-dark(#9bdcfd, #198cc4);fontColor=#ffffff;strokeColor=light-dark(#000000, #51afe7);" vertex="1" parent="1">
          <mxGeometry x="620" y="50" width="1000" height="500" as="geometry" />
        </mxCell>
        <mxCell id="XGM9a50_ZVe8VgWGHPhA-97" value="" style="rounded=0;whiteSpace=wrap;html=1;" vertex="1" parent="1">
          <mxGeometry x="620" y="-450" width="800" height="500" as="geometry" />
        </mxCell>
        <mxCell id="XGM9a50_ZVe8VgWGHPhA-98" value="" style="rounded=0;whiteSpace=wrap;html=1;" vertex="1" parent="1">
          <mxGeometry x="620" y="-450" width="400" height="250" as="geometry" />
        </mxCell>
        <mxCell id="XGM9a50_ZVe8VgWGHPhA-100" value="" style="rounded=0;whiteSpace=wrap;html=1;" vertex="1" parent="1">
          <mxGeometry x="1020" y="-450" width="400" height="500" as="geometry" />
        </mxCell>
        <mxCell id="XGM9a50_ZVe8VgWGHPhA-101" value="" style="rounded=0;whiteSpace=wrap;html=1;" vertex="1" parent="1">
          <mxGeometry x="620" y="-200" width="400" height="250" as="geometry" />
        </mxCell>
        <mxCell id="XGM9a50_ZVe8VgWGHPhA-103" value="" style="rounded=1;whiteSpace=wrap;html=1;fillColor=#b1ddf0;strokeColor=#10739e;" vertex="1" parent="1">
          <mxGeometry x="950" y="-240" width="140" height="80" as="geometry" />
        </mxCell>
        <mxCell id="XGM9a50_ZVe8VgWGHPhA-104" value="" style="verticalLabelPosition=bottom;html=1;verticalAlign=top;align=center;shape=mxgraph.floorplan.wall;fillColor=strokeColor;direction=south;" vertex="1" parent="1">
          <mxGeometry x="1015" y="-450" width="10" height="210" as="geometry" />
        </mxCell>
        <mxCell id="XGM9a50_ZVe8VgWGHPhA-106" value="" style="verticalLabelPosition=bottom;html=1;verticalAlign=top;align=center;shape=mxgraph.floorplan.wall;fillColor=strokeColor;" vertex="1" parent="1">
          <mxGeometry x="620" y="-205" width="330" height="10" as="geometry" />
        </mxCell>
        <mxCell id="XGM9a50_ZVe8VgWGHPhA-109" value="" style="verticalLabelPosition=bottom;html=1;verticalAlign=top;align=center;shape=mxgraph.floorplan.wall;fillColor=strokeColor;direction=south;" vertex="1" parent="1">
          <mxGeometry x="1015" y="-160" width="10" height="210" as="geometry" />
        </mxCell>
        <mxCell id="XGM9a50_ZVe8VgWGHPhA-112" value="" style="verticalLabelPosition=bottom;html=1;verticalAlign=top;align=center;shape=mxgraph.floorplan.room;fillColor=strokeColor;" vertex="1" parent="1">
          <mxGeometry x="1090" y="-280" width="250" height="160" as="geometry" />
        </mxCell>
        <mxCell id="XGM9a50_ZVe8VgWGHPhA-114" value="" style="verticalLabelPosition=bottom;html=1;verticalAlign=top;align=center;shape=mxgraph.floorplan.wall;fillColor=strokeColor;" vertex="1" parent="1">
          <mxGeometry x="610" y="50" width="1010" height="10" as="geometry" />
        </mxCell>
        <mxCell id="XGM9a50_ZVe8VgWGHPhA-115" value="" style="rounded=0;whiteSpace=wrap;html=1;" vertex="1" parent="1">
          <mxGeometry x="620" y="60" width="200" height="250" as="geometry" />
        </mxCell>
        <mxCell id="XGM9a50_ZVe8VgWGHPhA-116" value="" style="rounded=0;whiteSpace=wrap;html=1;" vertex="1" parent="1">
          <mxGeometry x="620" y="310" width="200" height="250" as="geometry" />
        </mxCell>
        <mxCell id="XGM9a50_ZVe8VgWGHPhA-117" value="" style="rounded=0;whiteSpace=wrap;html=1;" vertex="1" parent="1">
          <mxGeometry x="820" y="310" width="400" height="250" as="geometry" />
        </mxCell>
        <mxCell id="XGM9a50_ZVe8VgWGHPhA-120" value="" style="rounded=0;whiteSpace=wrap;html=1;" vertex="1" parent="1">
          <mxGeometry x="820" y="60" width="200" height="250" as="geometry" />
        </mxCell>
        <mxCell id="XGM9a50_ZVe8VgWGHPhA-121" value="" style="rounded=0;whiteSpace=wrap;html=1;" vertex="1" parent="1">
          <mxGeometry x="1020" y="60" width="200" height="250" as="geometry" />
        </mxCell>
        <mxCell id="XGM9a50_ZVe8VgWGHPhA-124" value="" style="rounded=0;whiteSpace=wrap;html=1;fillColor=#d5e8d4;gradientColor=#97d077;strokeColor=#82b366;align=left;" vertex="1" parent="1">
          <mxGeometry x="1220" y="60" width="400" height="500" as="geometry" />
        </mxCell>
        <mxCell id="XGM9a50_ZVe8VgWGHPhA-123" value="&lt;font style=&quot;font-size: 24px;&quot;&gt;APIARIO&lt;/font&gt;" style="rounded=0;whiteSpace=wrap;html=1;fillColor=#fff2cc;gradientColor=#ffd966;strokeColor=#d6b656;" vertex="1" parent="1">
          <mxGeometry x="1420" y="310" width="200" height="250" as="geometry" />
        </mxCell>
        <mxCell id="XGM9a50_ZVe8VgWGHPhA-125" value="&lt;font style=&quot;font-size: 25px;&quot;&gt;ARBOLES FRUTALES&lt;/font&gt;" style="text;html=1;align=center;verticalAlign=middle;resizable=0;points=[];autosize=1;strokeColor=none;fillColor=none;" vertex="1" parent="1">
          <mxGeometry x="1280" y="190" width="280" height="40" as="geometry" />
        </mxCell>
        <mxCell id="XGM9a50_ZVe8VgWGHPhA-126" value="&lt;font style=&quot;font-size: 24px;&quot;&gt;PLATANO&lt;/font&gt;" style="text;html=1;align=center;verticalAlign=middle;whiteSpace=wrap;rounded=0;" vertex="1" parent="1">
          <mxGeometry x="1090" y="110" width="60" height="30" as="geometry" />
        </mxCell>
        <mxCell id="XGM9a50_ZVe8VgWGHPhA-128" value="&lt;span style=&quot;font-size: 24px;&quot;&gt;YUCA&lt;/span&gt;" style="text;html=1;align=center;verticalAlign=middle;whiteSpace=wrap;rounded=0;" vertex="1" parent="1">
          <mxGeometry x="890" y="110" width="60" height="30" as="geometry" />
        </mxCell>
        <mxCell id="XGM9a50_ZVe8VgWGHPhA-130" value="&lt;font style=&quot;font-size: 24px;&quot;&gt;Ã‘AME&lt;/font&gt;" style="text;html=1;align=center;verticalAlign=middle;whiteSpace=wrap;rounded=0;" vertex="1" parent="1">
          <mxGeometry x="690" y="110" width="60" height="30" as="geometry" />
        </mxCell>
        <mxCell id="XGM9a50_ZVe8VgWGHPhA-133" value="&lt;font style=&quot;font-size: 24px;&quot;&gt;MAIZ&lt;/font&gt;" style="text;html=1;align=center;verticalAlign=middle;whiteSpace=wrap;rounded=0;" vertex="1" parent="1">
          <mxGeometry x="690" y="395" width="60" height="30" as="geometry" />
        </mxCell>
        <mxCell id="XGM9a50_ZVe8VgWGHPhA-135" value="&lt;font style=&quot;font-size: 24px;&quot;&gt;OTROS CULTIVOS&lt;/font&gt;" style="text;html=1;align=center;verticalAlign=middle;whiteSpace=wrap;rounded=0;" vertex="1" parent="1">
          <mxGeometry x="990" y="395" width="60" height="30" as="geometry" />
        </mxCell>
        <mxCell id="XGM9a50_ZVe8VgWGHPhA-138" value="" style="verticalLabelPosition=bottom;html=1;verticalAlign=top;align=center;shape=mxgraph.floorplan.wallU;fillColor=strokeColor;rotation=90;" vertex="1" parent="1">
          <mxGeometry x="1155" y="-185" width="185" height="305" as="geometry" />
        </mxCell>
        <mxCell id="XGM9a50_ZVe8VgWGHPhA-139" value="" style="verticalLabelPosition=bottom;html=1;verticalAlign=top;align=center;shape=mxgraph.floorplan.wallU;fillColor=strokeColor;rotation=90;" vertex="1" parent="1">
          <mxGeometry x="1155" y="-516" width="185" height="305" as="geometry" />
        </mxCell>
        <mxCell id="XGM9a50_ZVe8VgWGHPhA-140" value="" style="verticalLabelPosition=bottom;html=1;verticalAlign=top;align=center;shape=mxgraph.floorplan.wall;fillColor=strokeColor;" vertex="1" parent="1">
          <mxGeometry x="610" y="-450" width="780" height="10" as="geometry" />
        </mxCell>
        <mxCell id="XGM9a50_ZVe8VgWGHPhA-141" value="" style="verticalLabelPosition=bottom;html=1;verticalAlign=top;align=center;shape=mxgraph.floorplan.doorDoubleAction;aspect=fixed;rotation=-90;" vertex="1" parent="1">
          <mxGeometry x="1004.96" y="-288.86" width="29.09" height="60" as="geometry" />
        </mxCell>
        <mxCell id="XGM9a50_ZVe8VgWGHPhA-142" value="" style="verticalLabelPosition=bottom;html=1;verticalAlign=top;align=center;shape=mxgraph.floorplan.doorDoubleAction;aspect=fixed;rotation=90;" vertex="1" parent="1">
          <mxGeometry x="1007.38" y="-173.56" width="24.24" height="50" as="geometry" />
        </mxCell>
        <mxCell id="XGM9a50_ZVe8VgWGHPhA-143" value="" style="verticalLabelPosition=bottom;html=1;verticalAlign=top;align=center;shape=mxgraph.floorplan.doorDoubleAction;aspect=fixed;rotation=-180;" vertex="1" parent="1">
          <mxGeometry x="925.76" y="-227" width="24.24" height="50" as="geometry" />
        </mxCell>
        <mxCell id="XGM9a50_ZVe8VgWGHPhA-144" value="" style="verticalLabelPosition=bottom;html=1;verticalAlign=top;align=center;shape=mxgraph.floorplan.doorDoubleAction;aspect=fixed;rotation=90;" vertex="1" parent="1">
          <mxGeometry x="1330" y="-218.13" width="20" height="41.25" as="geometry" />
        </mxCell>
        <mxCell id="XGM9a50_ZVe8VgWGHPhA-145" value="" style="verticalLabelPosition=bottom;html=1;verticalAlign=top;align=center;shape=mxgraph.floorplan.wall;fillColor=strokeColor;direction=south;" vertex="1" parent="1">
          <mxGeometry x="1720" y="-450" width="10" height="1010" as="geometry" />
        </mxCell>
        <mxCell id="XGM9a50_ZVe8VgWGHPhA-146" value="" style="verticalLabelPosition=bottom;html=1;verticalAlign=top;align=center;shape=mxgraph.floorplan.wall;fillColor=strokeColor;direction=south;" vertex="1" parent="1">
          <mxGeometry x="1880" y="-440" width="10" height="1000" as="geometry" />
        </mxCell>
        <mxCell id="XGM9a50_ZVe8VgWGHPhA-149" value="" style="endArrow=classic;html=1;rounded=0;" edge="1" parent="1">
          <mxGeometry width="50" height="50" relative="1" as="geometry">
            <mxPoint x="1798" y="130" as="sourcePoint" />
            <mxPoint x="1798" y="20" as="targetPoint" />
          </mxGeometry>
        </mxCell>
        <mxCell id="XGM9a50_ZVe8VgWGHPhA-150" value="" style="endArrow=classic;html=1;rounded=0;" edge="1" parent="1">
          <mxGeometry width="50" height="50" relative="1" as="geometry">
            <mxPoint x="1799" y="343" as="sourcePoint" />
            <mxPoint x="1799" y="233" as="targetPoint" />
          </mxGeometry>
        </mxCell>
        <mxCell id="XGM9a50_ZVe8VgWGHPhA-151" value="" style="endArrow=classic;html=1;rounded=0;" edge="1" parent="1">
          <mxGeometry width="50" height="50" relative="1" as="geometry">
            <mxPoint x="1800" y="-50" as="sourcePoint" />
            <mxPoint x="1800" y="-160" as="targetPoint" />
          </mxGeometry>
        </mxCell>
        <mxCell id="XGM9a50_ZVe8VgWGHPhA-152" value="" style="verticalLabelPosition=bottom;html=1;verticalAlign=top;align=center;shape=mxgraph.floorplan.doorDouble;aspect=fixed;rotation=-90;" vertex="1" parent="1">
          <mxGeometry x="1577.66" y="-107.66" width="170" height="90.31" as="geometry" />
        </mxCell>
      </root>
    </mxGraphModel>
  </diagram>
</mxfile>
